<svg width="742" height="161" viewBox="0 0 742 161" fill="none" xmlns="http://www.w3.org/2000/svg">
<path d="M162 103.497V87.4966L220.749 88.4966C220.749 98.2299 223.683 106.177 220.749 114.977C217.816 123.644 214.679 128.3 209.333 137.133C204.926 144.415 196.8 150.697 188.4 154.697C180.133 158.563 170.667 160.497 160 160.497C149.867 160.497 140.467 158.763 131.8 155.297C123.133 151.697 115.6 146.697 109.2 140.297C102.8 133.763 97.8 126.097 94.2 117.297C90.7333 108.497 89 98.8966 89 88.4966C89 78.0965 90.7333 68.4966 94.2 59.6966C97.8 50.8966 102.8 43.2966 109.2 36.8965C115.6 30.3632 123.133 25.3632 131.8 21.8965C140.467 18.2965 149.867 16.4965 160 16.4965C168.667 16.4965 176.6 17.6299 183.8 19.8966C191.133 22.1632 197.667 25.4965 203.4 29.8966C209.267 34.2966 214.2 39.7632 218.2 46.2965L206.2 57.2965C201.8 49.8299 195.667 44.0299 187.8 39.8965C179.933 35.6299 170.667 33.4966 160 33.4966C150.133 33.4966 141.2 35.8299 133.2 40.4965C125.2 45.1632 118.8 51.6299 114 59.8965C109.333 68.0299 107 77.5632 107 88.4966C107 99.2966 109.333 108.83 114 117.097C118.8 125.363 125.2 131.83 133.2 136.497C141.2 141.163 150.133 143.497 160 143.497C166.933 143.497 173.133 142.497 178.6 140.497C184.2 138.363 189 135.43 193 131.697C197 127.963 200.267 123.697 202.8 118.897C205.467 114.097 207.4 108.963 208.6 103.497H162Z" fill="black"/>
<path d="M252.494 66.4966V158.497H236.494V66.4966H252.494ZM280.294 84.0966C278.161 82.4966 276.227 81.3632 274.494 80.6965C272.761 79.8966 270.561 79.4966 267.894 79.4966C263.894 79.4966 260.761 80.4966 258.494 82.4966C256.227 84.4966 254.627 87.2299 253.694 90.6966C252.894 94.1632 252.494 98.0966 252.494 102.497H245.294C245.294 95.1632 246.561 88.6966 249.094 83.0966C251.761 77.3632 255.161 72.8299 259.294 69.4966C263.427 66.1632 267.627 64.4966 271.894 64.4966C275.227 64.4966 278.294 64.9632 281.094 65.8966C284.027 66.6966 286.694 68.3632 289.094 70.8966L280.294 84.0966Z" fill="black"/>
<path d="M330.883 160.497C322.349 160.497 314.749 158.497 308.083 154.497C301.549 150.363 296.416 144.697 292.683 137.497C289.083 130.297 287.283 121.963 287.283 112.497C287.283 102.897 289.149 94.4966 292.883 87.2966C296.749 80.0966 302.083 74.4966 308.883 70.4966C315.816 66.4966 323.816 64.4966 332.883 64.4966C341.949 64.4966 349.682 66.4299 356.082 70.2966C362.616 74.0299 367.616 79.4299 371.083 86.4966C374.549 93.5632 376.283 101.963 376.283 111.697C376.283 112.63 376.216 113.63 376.083 114.697C376.083 115.63 376.083 116.23 376.083 116.497H297.483V102.897H363.483L357.082 112.097C357.482 111.43 357.883 110.43 358.283 109.097C358.683 107.63 358.883 106.43 358.883 105.497C358.883 100.03 357.749 95.2966 355.483 91.2966C353.349 87.2966 350.349 84.1632 346.483 81.8966C342.616 79.6299 338.083 78.4966 332.883 78.4966C326.749 78.4966 321.483 79.8299 317.083 82.4966C312.816 85.0299 309.483 88.7632 307.083 93.6966C304.816 98.4966 303.616 104.43 303.483 111.497C303.483 118.697 304.616 124.83 306.883 129.897C309.149 134.963 312.483 138.83 316.883 141.497C321.283 144.163 326.616 145.497 332.883 145.497C339.149 145.497 344.683 144.163 349.483 141.497C354.283 138.697 358.349 134.497 361.682 128.897L374.682 137.097C369.882 144.83 363.816 150.697 356.483 154.697C349.283 158.563 340.749 160.497 330.883 160.497Z" fill="black"/>
<path d="M431.533 160.497C423 160.497 415.4 158.497 408.733 154.497C402.2 150.363 397.067 144.697 393.333 137.497C389.733 130.297 387.933 121.963 387.933 112.497C387.933 102.897 389.8 94.4966 393.533 87.2966C397.4 80.0966 402.733 74.4966 409.533 70.4966C416.467 66.4966 424.467 64.4966 433.533 64.4966C442.6 64.4966 450.333 66.4299 456.733 70.2966C463.267 74.0299 468.267 79.4299 471.733 86.4966C475.2 93.5632 476.933 101.963 476.933 111.697C476.933 112.63 476.867 113.63 476.733 114.697C476.733 115.63 476.733 116.23 476.733 116.497H398.133V102.897H464.133L457.733 112.097C458.133 111.43 458.533 110.43 458.933 109.097C459.333 107.63 459.533 106.43 459.533 105.497C459.533 100.03 458.4 95.2966 456.133 91.2966C454 87.2966 451 84.1632 447.133 81.8966C443.267 79.6299 438.733 78.4966 433.533 78.4966C427.4 78.4966 422.133 79.8299 417.733 82.4966C413.467 85.0299 410.133 88.7632 407.733 93.6966C405.467 98.4966 404.267 104.43 404.133 111.497C404.133 118.697 405.267 124.83 407.533 129.897C409.8 134.963 413.133 138.83 417.533 141.497C421.933 144.163 427.267 145.497 433.533 145.497C439.8 145.497 445.333 144.163 450.133 141.497C454.933 138.697 459 134.497 462.333 128.897L475.333 137.097C470.533 144.83 464.467 150.697 457.133 154.697C449.933 158.563 441.4 160.497 431.533 160.497Z" fill="black"/>
<path d="M546.925 102.497C546.925 94.8966 545.258 89.1632 541.925 85.2965C538.592 81.4299 533.725 79.4966 527.325 79.4966C522.658 79.4966 518.525 80.4966 514.925 82.4966C511.458 84.3632 508.725 87.0299 506.725 90.4966C504.858 93.9632 503.925 97.9632 503.925 102.497V158.497H487.925V66.4966H503.925V80.8966C506.992 75.2966 510.792 71.1632 515.325 68.4966C519.992 65.8299 525.325 64.4966 531.325 64.4966C541.058 64.4966 548.725 67.7632 554.325 74.2965C560.058 80.6965 562.925 89.4299 562.925 100.497V158.497H546.925V102.497Z" fill="black"/>
<path d="M574.609 66.4966H620.609V81.4966H574.609V66.4966ZM619.009 21.6966C617.676 19.4299 616.076 18.0299 614.209 17.4965C612.476 16.8299 610.809 16.4965 609.209 16.4965C607.209 16.4965 605.476 17.0965 604.009 18.2965C602.676 19.3632 601.609 21.2299 600.809 23.8965C600.009 26.5632 599.609 30.0965 599.609 34.4966V158.497H583.609V32.4965C583.609 25.1632 584.676 19.1632 586.809 14.4965C588.942 9.82988 591.942 6.36321 595.809 4.09655C599.809 1.69655 604.609 0.496552 610.209 0.496552C613.142 0.496552 615.742 0.89655 618.009 1.69655C620.276 2.49655 622.209 3.49654 623.809 4.69655C625.542 5.89655 626.876 7.16321 627.809 8.49654L619.009 21.6966Z" fill="black"/>
<path d="M631.088 28.4965C631.088 25.4299 632.155 22.8299 634.288 20.6966C636.555 18.5632 639.154 17.4965 642.088 17.4965C645.154 17.4965 647.754 18.5632 649.888 20.6966C652.021 22.8299 653.088 25.4299 653.088 28.4965C653.088 31.4299 652.021 34.0299 649.888 36.2966C647.754 38.4299 645.154 39.4966 642.088 39.4966C639.154 39.4966 636.555 38.4299 634.288 36.2966C632.155 34.0299 631.088 31.4299 631.088 28.4965ZM634.088 66.4966H650.088V158.497H634.088V66.4966Z" fill="black"/>
<path d="M725.178 102.497C725.178 94.8966 723.511 89.1632 720.178 85.2965C716.845 81.4299 711.978 79.4966 705.578 79.4966C700.911 79.4966 696.778 80.4966 693.178 82.4966C689.711 84.3632 686.978 87.0299 684.978 90.4966C683.111 93.9632 682.178 97.9632 682.178 102.497V158.497H666.178V66.4966H682.178V80.8966C685.245 75.2966 689.045 71.1632 693.578 68.4966C698.245 65.8299 703.578 64.4966 709.578 64.4966C719.311 64.4966 726.978 67.7632 732.578 74.2965C738.311 80.6965 741.178 89.4299 741.178 100.497V158.497H725.178V102.497Z" fill="black"/>
<rect x="224.41" y="159.367" width="16.0085" height="71.1102" transform="rotate(-180 224.41 159.367)" fill="black"/>
<path d="M46.785 159.319H62.837V88.3366H0.101318V103.358H46.785C45.0177 116.857 33.2069 143.856 0.101318 143.856V160.203C10.6555 160.448 34.7681 156.58 46.785 139.144V159.319Z" fill="#4A912E"/>
</svg>
